<mxfile host="app.diagrams.net" modified="2021-03-04T19:11:58.465Z" agent="5.0 (Windows NT 10.0; Win64; x64) AppleWebKit/537.36 (KHTML, like Gecko) Chrome/87.0.4280.141 Safari/537.36" etag="TrZsA02VS2FDkoBtqSrb" version="14.4.4" type="github">
  <diagram id="qS-KOgHT_1TUNI2G_cTB" name="Page-1">
    <mxGraphModel dx="1196" dy="910" grid="1" gridSize="10" guides="1" tooltips="1" connect="1" arrows="1" fold="1" page="1" pageScale="1" pageWidth="827" pageHeight="1169" math="0" shadow="0">
      <root>
        <mxCell id="0" />
        <mxCell id="1" parent="0" />
        <mxCell id="nlDJBYcVKK9miLEpTU08-1" value="" style="ellipse;shape=cloud;whiteSpace=wrap;html=1;" vertex="1" parent="1">
          <mxGeometry x="300" y="390" width="170" height="110" as="geometry" />
        </mxCell>
        <mxCell id="nlDJBYcVKK9miLEpTU08-2" value="" style="ellipse;shape=cloud;whiteSpace=wrap;html=1;" vertex="1" parent="1">
          <mxGeometry x="160" y="200" width="120" height="80" as="geometry" />
        </mxCell>
        <mxCell id="nlDJBYcVKK9miLEpTU08-3" value="" style="shape=flexArrow;endArrow=classic;startArrow=classic;html=1;exitX=0.8;exitY=0.8;exitDx=0;exitDy=0;exitPerimeter=0;entryX=0.25;entryY=0.25;entryDx=0;entryDy=0;entryPerimeter=0;" edge="1" parent="1" source="nlDJBYcVKK9miLEpTU08-2" target="nlDJBYcVKK9miLEpTU08-1">
          <mxGeometry width="50" height="50" relative="1" as="geometry">
            <mxPoint x="390" y="490" as="sourcePoint" />
            <mxPoint x="440" y="440" as="targetPoint" />
          </mxGeometry>
        </mxCell>
      </root>
    </mxGraphModel>
  </diagram>
</mxfile>
